<svg width="16" height="16" viewBox="0 0 16 16" fill="none" xmlns="http://www.w3.org/2000/svg">
<path d="M4 2H3V3H2V5H1V6H2V7H3V8H2V9H3V10H5V11H4V12H6V13H7V14H9V15H11V14H14V13H12V12H13V11H11V9H10V8H9V9H8V7H6V5H5V4H4V2Z" fill="url(#paint0_linear_307_90)"/>
<path d="M3 4H4V6H5V8H6V9H7V10H8V11H9V12H11V13H14V14H11V13H9V12H8V11H7V10H6V9H5V8H4V6H3V4Z" fill="url(#paint1_linear_307_90)"/>
<path d="M5.4834 1.02368V3H4.97559V1.02368H5.4834ZM6.16943 1.02368V1.28125H5.66162V1.02368H6.16943ZM6.16943 1.38013V3H5.66162V1.38013H6.16943ZM6.86768 1.16406V1.41919H7.00073V1.67554H6.86768V2.54224C6.86768 2.64884 6.87297 2.70825 6.88354 2.72046C6.89494 2.73267 6.94092 2.73877 7.02148 2.73877V3H6.82251C6.71021 3 6.63005 2.99552 6.58203 2.98657C6.53402 2.97681 6.4917 2.95524 6.45508 2.92188C6.41846 2.8877 6.39567 2.84904 6.38672 2.80591C6.37777 2.76196 6.37329 2.65942 6.37329 2.49829V1.67554H6.26709V1.41919H6.37329V1.16406H6.86768ZM8.22632 2.21875H7.58789V2.56909C7.58789 2.64233 7.59318 2.68953 7.60376 2.71069C7.61434 2.73185 7.63468 2.74243 7.66479 2.74243C7.70223 2.74243 7.72705 2.7286 7.73926 2.70093C7.75228 2.67244 7.75879 2.61792 7.75879 2.53735V2.32373H8.22632V2.44336C8.22632 2.54346 8.21981 2.62036 8.20679 2.67407C8.19458 2.72778 8.16528 2.78516 8.1189 2.84619C8.07251 2.90723 8.01351 2.95321 7.94189 2.98413C7.87109 3.01424 7.78198 3.0293 7.67456 3.0293C7.57039 3.0293 7.47843 3.01424 7.39868 2.98413C7.31893 2.95402 7.25667 2.91292 7.21191 2.86084C7.16797 2.80794 7.13745 2.75016 7.12036 2.6875C7.10327 2.62402 7.09473 2.53206 7.09473 2.41162V1.93921C7.09473 1.79761 7.11385 1.68612 7.1521 1.60474C7.19035 1.52254 7.25301 1.45988 7.34009 1.41675C7.42716 1.3728 7.52726 1.35083 7.64038 1.35083C7.77873 1.35083 7.89266 1.37728 7.98218 1.43018C8.07251 1.48226 8.13558 1.55184 8.17139 1.63892C8.20801 1.72518 8.22632 1.84684 8.22632 2.00391V2.21875ZM7.73193 1.95508V1.83667C7.73193 1.75285 7.72746 1.69873 7.71851 1.67432C7.70955 1.6499 7.69124 1.6377 7.66357 1.6377C7.62939 1.6377 7.60824 1.64827 7.6001 1.66943C7.59196 1.68978 7.58789 1.74552 7.58789 1.83667V1.95508H7.73193ZM8.89648 1.02368V3H8.38867V1.02368H8.89648ZM10.1904 1.94897V2.3457C10.1904 2.49137 10.1831 2.59839 10.1685 2.66675C10.1538 2.73429 10.1225 2.79777 10.0745 2.85718C10.0264 2.91577 9.9646 2.95931 9.88892 2.98779C9.81405 3.01546 9.72778 3.0293 9.63013 3.0293C9.52108 3.0293 9.42871 3.0175 9.35303 2.9939C9.27734 2.96948 9.21834 2.93327 9.17603 2.88525C9.13452 2.83643 9.10482 2.77783 9.08691 2.70947C9.06901 2.6403 9.06006 2.53695 9.06006 2.39941V1.98438C9.06006 1.83382 9.07633 1.71623 9.10889 1.63159C9.14144 1.54696 9.20003 1.479 9.28467 1.42773C9.3693 1.37646 9.47754 1.35083 9.60938 1.35083C9.72005 1.35083 9.81486 1.36751 9.8938 1.40088C9.97355 1.43343 10.035 1.47616 10.0781 1.52905C10.1213 1.58195 10.1506 1.63647 10.166 1.69263C10.1823 1.74878 10.1904 1.83423 10.1904 1.94897ZM9.69727 1.8269C9.69727 1.7439 9.69279 1.69181 9.68384 1.67065C9.67489 1.64868 9.65576 1.6377 9.62646 1.6377C9.59717 1.6377 9.57764 1.64868 9.56787 1.67065C9.55811 1.69181 9.55322 1.7439 9.55322 1.8269V2.55811C9.55322 2.6346 9.55811 2.68465 9.56787 2.70825C9.57764 2.73104 9.59676 2.74243 9.62524 2.74243C9.65454 2.74243 9.67367 2.73185 9.68262 2.71069C9.69238 2.68953 9.69727 2.64396 9.69727 2.57397V1.8269ZM10.7947 2.00757H10.332V1.89893C10.332 1.7736 10.3463 1.67716 10.3748 1.60962C10.4041 1.54126 10.4622 1.48104 10.5493 1.42896C10.6364 1.37687 10.7495 1.35083 10.8887 1.35083C11.0555 1.35083 11.1812 1.38053 11.2659 1.43994C11.3505 1.49854 11.4014 1.57096 11.4185 1.65723C11.4355 1.74268 11.4441 1.91927 11.4441 2.18701V3H10.9644V2.85596C10.9342 2.91374 10.8952 2.95728 10.8472 2.98657C10.8 3.01506 10.7434 3.0293 10.6775 3.0293C10.5912 3.0293 10.5119 3.00529 10.4395 2.95728C10.3678 2.90845 10.332 2.80225 10.332 2.63867V2.50562C10.332 2.38436 10.3512 2.30176 10.3894 2.25781C10.4277 2.21387 10.5225 2.1626 10.6738 2.104C10.8358 2.04053 10.9224 1.9978 10.9338 1.97583C10.9452 1.95386 10.9509 1.9091 10.9509 1.84155C10.9509 1.75692 10.9444 1.70199 10.9314 1.67676C10.9192 1.65072 10.8984 1.6377 10.8691 1.6377C10.8358 1.6377 10.815 1.64868 10.8069 1.67065C10.7987 1.69181 10.7947 1.74756 10.7947 1.83789V2.00757ZM10.9509 2.22974C10.872 2.28752 10.826 2.33594 10.813 2.375C10.8008 2.41406 10.7947 2.47021 10.7947 2.54346C10.7947 2.62728 10.8 2.6814 10.8105 2.70581C10.8219 2.73022 10.8439 2.74243 10.8765 2.74243C10.9074 2.74243 10.9273 2.73307 10.9363 2.71436C10.946 2.69482 10.9509 2.64437 10.9509 2.56299V2.22974ZM12.7356 1.02368V3H12.2424V2.88281C12.1952 2.93164 12.1456 2.96826 12.0935 2.99268C12.0414 3.01709 11.9869 3.0293 11.9299 3.0293C11.8534 3.0293 11.7871 3.00936 11.731 2.96948C11.6748 2.92879 11.6386 2.882 11.6223 2.8291C11.6069 2.7762 11.5991 2.68994 11.5991 2.57031V1.81226C11.5991 1.68774 11.6069 1.59945 11.6223 1.54736C11.6386 1.49528 11.6752 1.44971 11.7322 1.41064C11.7891 1.37077 11.8571 1.35083 11.936 1.35083C11.9971 1.35083 12.0528 1.36182 12.1033 1.38379C12.1545 1.40576 12.2009 1.43872 12.2424 1.48267V1.02368H12.7356ZM12.2424 1.78784C12.2424 1.72843 12.2371 1.68856 12.2266 1.66821C12.2168 1.64787 12.1969 1.6377 12.1667 1.6377C12.1375 1.6377 12.1175 1.64705 12.1069 1.66577C12.0972 1.68368 12.0923 1.72437 12.0923 1.78784V2.5813C12.0923 2.64722 12.0972 2.69076 12.1069 2.71191C12.1167 2.73226 12.1354 2.74243 12.1631 2.74243C12.1948 2.74243 12.216 2.73104 12.2266 2.70825C12.2371 2.68465 12.2424 2.62769 12.2424 2.53735V1.78784ZM14.0295 2.21875H13.3911V2.56909C13.3911 2.64233 13.3964 2.68953 13.407 2.71069C13.4176 2.73185 13.4379 2.74243 13.468 2.74243C13.5055 2.74243 13.5303 2.7286 13.5425 2.70093C13.5555 2.67244 13.562 2.61792 13.562 2.53735V2.32373H14.0295V2.44336C14.0295 2.54346 14.023 2.62036 14.01 2.67407C13.9978 2.72778 13.9685 2.78516 13.9221 2.84619C13.8757 2.90723 13.8167 2.95321 13.7451 2.98413C13.6743 3.01424 13.5852 3.0293 13.4778 3.0293C13.3736 3.0293 13.2817 3.01424 13.2019 2.98413C13.1222 2.95402 13.0599 2.91292 13.0151 2.86084C12.9712 2.80794 12.9407 2.75016 12.9236 2.6875C12.9065 2.62402 12.8979 2.53206 12.8979 2.41162V1.93921C12.8979 1.79761 12.9171 1.68612 12.9553 1.60474C12.9936 1.52254 13.0562 1.45988 13.1433 1.41675C13.2304 1.3728 13.3305 1.35083 13.4436 1.35083C13.5819 1.35083 13.6959 1.37728 13.7854 1.43018C13.8757 1.48226 13.9388 1.55184 13.9746 1.63892C14.0112 1.72518 14.0295 1.84684 14.0295 2.00391V2.21875ZM13.5352 1.95508V1.83667C13.5352 1.75285 13.5307 1.69873 13.5217 1.67432C13.5128 1.6499 13.4945 1.6377 13.4668 1.6377C13.4326 1.6377 13.4115 1.64827 13.4033 1.66943C13.3952 1.68978 13.3911 1.74552 13.3911 1.83667V1.95508H13.5352ZM14.6851 1.38013L14.6655 1.59253C14.7371 1.44035 14.8409 1.35978 14.9768 1.35083V1.9209C14.8865 1.9209 14.8201 1.93311 14.7778 1.95752C14.7355 1.98193 14.7095 2.01611 14.6997 2.06006C14.6899 2.10319 14.6851 2.20329 14.6851 2.36035V3H14.1919V1.38013H14.6851Z" fill="url(#paint2_linear_307_90)"/>
<path d="M9.84261 4.5V3.789H10.0661L10.0736 3.852C10.1056 3.829 10.1416 3.8105 10.1816 3.7965C10.2216 3.7815 10.2646 3.774 10.3106 3.774C10.3586 3.774 10.3961 3.7815 10.4231 3.7965C10.4501 3.8105 10.4711 3.8305 10.4861 3.8565C10.5191 3.8325 10.5561 3.813 10.5971 3.798C10.6391 3.782 10.6881 3.774 10.7441 3.774C10.8271 3.774 10.8881 3.7955 10.9271 3.8385C10.9661 3.8815 10.9856 3.947 10.9856 4.035V4.5H10.7471V4.0635C10.7471 4.0245 10.7386 3.9965 10.7216 3.9795C10.7056 3.9615 10.6791 3.9525 10.6421 3.9525C10.6191 3.9525 10.5966 3.9575 10.5746 3.9675C10.5526 3.9765 10.5341 3.9895 10.5191 4.0065C10.5211 4.0175 10.5221 4.028 10.5221 4.038C10.5231 4.048 10.5236 4.06 10.5236 4.074V4.5H10.2986V4.0605C10.2986 4.0245 10.2921 3.9975 10.2791 3.9795C10.2671 3.9615 10.2436 3.9525 10.2086 3.9525C10.1836 3.9525 10.1601 3.959 10.1381 3.972C10.1161 3.985 10.0961 4 10.0781 4.017V4.5H9.84261ZM11.4214 4.515C11.3524 4.515 11.2934 4.504 11.2444 4.482C11.1954 4.46 11.1579 4.424 11.1319 4.374C11.1059 4.323 11.0929 4.255 11.0929 4.17C11.0929 4.084 11.1079 4.012 11.1379 3.954C11.1679 3.895 11.2089 3.8505 11.2609 3.8205C11.3139 3.7895 11.3744 3.774 11.4424 3.774C11.4794 3.774 11.5124 3.778 11.5414 3.786C11.5714 3.794 11.5994 3.806 11.6254 3.822V3.489H11.8669V4.5H11.6584L11.6449 4.44C11.6159 4.465 11.5834 4.484 11.5474 4.497C11.5114 4.509 11.4694 4.515 11.4214 4.515ZM11.4904 4.3395C11.5434 4.3395 11.5884 4.3215 11.6254 4.2855V3.9975C11.5914 3.9665 11.5479 3.951 11.4949 3.951C11.4439 3.951 11.4049 3.9705 11.3779 4.0095C11.3519 4.0475 11.3389 4.1015 11.3389 4.1715C11.3389 4.2395 11.3514 4.2845 11.3764 4.3065C11.4024 4.3285 11.4404 4.3395 11.4904 4.3395ZM12.0194 4.824V3.789H12.2294L12.2414 3.8505C12.2704 3.8265 12.3029 3.808 12.3389 3.795C12.3749 3.781 12.4169 3.774 12.4649 3.774C12.5659 3.774 12.6459 3.8015 12.7049 3.8565C12.7639 3.9105 12.7934 4.0015 12.7934 4.1295C12.7934 4.2565 12.7629 4.3525 12.7019 4.4175C12.6419 4.4825 12.5589 4.515 12.4529 4.515C12.3779 4.515 12.3139 4.4995 12.2609 4.4685V4.824H12.0194ZM12.3914 4.338C12.4954 4.338 12.5474 4.267 12.5474 4.125C12.5474 4.057 12.5354 4.011 12.5114 3.987C12.4874 3.963 12.4489 3.951 12.3959 3.951C12.3449 3.951 12.2999 3.969 12.2609 4.005V4.293C12.2799 4.307 12.2989 4.318 12.3179 4.326C12.3379 4.334 12.3624 4.338 12.3914 4.338ZM12.9159 4.5V3.489H13.1574V4.017L13.3899 3.789H13.6644L13.3794 4.0845L13.6809 4.5H13.4244L13.2279 4.212L13.1574 4.281V4.5H12.9159ZM13.7874 4.5V3.789H14.0109L14.0184 3.852C14.0504 3.829 14.0864 3.8105 14.1264 3.7965C14.1664 3.7815 14.2094 3.774 14.2554 3.774C14.3034 3.774 14.3409 3.7815 14.3679 3.7965C14.3949 3.8105 14.4159 3.8305 14.4309 3.8565C14.4639 3.8325 14.5009 3.813 14.5419 3.798C14.5839 3.782 14.6329 3.774 14.6889 3.774C14.7719 3.774 14.8329 3.7955 14.8719 3.8385C14.9109 3.8815 14.9304 3.947 14.9304 4.035V4.5H14.6919V4.0635C14.6919 4.0245 14.6834 3.9965 14.6664 3.9795C14.6504 3.9615 14.6239 3.9525 14.5869 3.9525C14.5639 3.9525 14.5414 3.9575 14.5194 3.9675C14.4974 3.9765 14.4789 3.9895 14.4639 4.0065C14.4659 4.0175 14.4669 4.028 14.4669 4.038C14.4679 4.048 14.4684 4.06 14.4684 4.074V4.5H14.2434V4.0605C14.2434 4.0245 14.2369 3.9975 14.2239 3.9795C14.2119 3.9615 14.1884 3.9525 14.1534 3.9525C14.1284 3.9525 14.1049 3.959 14.0829 3.972C14.0609 3.985 14.0409 4 14.0229 4.017V4.5H13.7874Z" fill="url(#paint3_linear_307_90)"/>
<path d="M7.73956 4.5V3.9165H7.63606V3.789H7.73956V3.702C7.73956 3.631 7.75906 3.574 7.79806 3.531C7.83806 3.487 7.89706 3.465 7.97506 3.465C8.00406 3.465 8.03056 3.4675 8.05456 3.4725C8.07856 3.4765 8.10056 3.4825 8.12056 3.4905V3.6075C8.08956 3.5965 8.05806 3.591 8.02606 3.591C7.97906 3.591 7.94656 3.5995 7.92856 3.6165C7.91056 3.6335 7.90156 3.6625 7.90156 3.7035V3.789H8.08756L8.08006 3.9165H7.90156V4.5H7.73956ZM8.52436 4.515C8.39636 4.515 8.30236 4.483 8.24236 4.419C8.18336 4.355 8.15386 4.2635 8.15386 4.1445C8.15386 4.0255 8.18386 3.934 8.24386 3.87C8.30386 3.806 8.39736 3.774 8.52436 3.774C8.65236 3.774 8.74636 3.806 8.80636 3.87C8.86636 3.934 8.89636 4.0255 8.89636 4.1445C8.89636 4.2635 8.86636 4.355 8.80636 4.419C8.74736 4.483 8.65336 4.515 8.52436 4.515ZM8.52436 4.377C8.59936 4.377 8.65236 4.359 8.68336 4.323C8.71536 4.286 8.73136 4.2265 8.73136 4.1445C8.73136 4.0625 8.71536 4.0035 8.68336 3.9675C8.65236 3.9315 8.59936 3.9135 8.52436 3.9135C8.45036 3.9135 8.39736 3.9315 8.36536 3.9675C8.33436 4.0035 8.31886 4.0625 8.31886 4.1445C8.31886 4.2265 8.33436 4.286 8.36536 4.323C8.39736 4.359 8.45036 4.377 8.52436 4.377ZM9.05544 4.5V3.789H9.20544L9.21444 3.8715C9.24844 3.8495 9.28894 3.8295 9.33594 3.8115C9.38294 3.7935 9.42944 3.781 9.47544 3.774V3.8985C9.44744 3.9035 9.41694 3.911 9.38394 3.921C9.35194 3.93 9.32144 3.9405 9.29244 3.9525C9.26344 3.9635 9.23894 3.975 9.21894 3.987V4.5H9.05544Z" fill="white"/>
<defs>
<linearGradient id="paint0_linear_307_90" x1="9.5" y1="10" x2="11.5" y2="15.5" gradientUnits="userSpaceOnUse">
<stop stop-color="#DFF2F9"/>
<stop offset="1" stop-color="#94A2A6"/>
</linearGradient>
<linearGradient id="paint1_linear_307_90" x1="8.5" y1="9" x2="11" y2="15" gradientUnits="userSpaceOnUse">
<stop stop-opacity="0.1"/>
<stop offset="1" stop-opacity="0.3"/>
</linearGradient>
<linearGradient id="paint2_linear_307_90" x1="4" y1="2" x2="15" y2="2" gradientUnits="userSpaceOnUse">
<stop stop-color="white"/>
<stop offset="0.390525" stop-color="white"/>
<stop offset="0.390625" stop-color="#4785D1"/>
<stop offset="1" stop-color="#4785D1"/>
</linearGradient>
<linearGradient id="paint3_linear_307_90" x1="12" y1="4" x2="12" y2="5" gradientUnits="userSpaceOnUse">
<stop stop-color="#60D99F"/>
<stop offset="1" stop-color="#59987A"/>
</linearGradient>
</defs>
</svg>
