<svg width="48" height="16" viewBox="0 0 48 16" fill="none" xmlns="http://www.w3.org/2000/svg">
<path d="M4 2H3V3H2V5H1V6H2V7H3V8H2V9H3V10H5V11H4V12H6V13H7V14H9V15H11V14H14V13H12V12H13V11H11V9H10V8H9V9H8V7H6V5H5V4H4V2Z" fill="url(#paint0_linear_305_86)"/>
<path d="M3 4H4V6H5V8H6V9H7V10H8V11H9V12H11V13H14V14H11V13H9V12H8V11H7V10H6V9H5V8H4V6H3V4Z" fill="url(#paint1_linear_305_86)"/>
<path d="M19.1602 5.25684V10H17.9414V5.25684H19.1602ZM20.8066 5.25684V5.875H19.5879V5.25684H20.8066ZM20.8066 6.1123V10H19.5879V6.1123H20.8066ZM22.4824 5.59375V6.20605H22.8018V6.82129H22.4824V8.90137C22.4824 9.15723 22.4951 9.2998 22.5205 9.3291C22.5479 9.3584 22.6582 9.37305 22.8516 9.37305V10H22.374C22.1045 10 21.9121 9.98926 21.7969 9.96777C21.6816 9.94434 21.5801 9.89258 21.4922 9.8125C21.4043 9.73047 21.3496 9.6377 21.3281 9.53418C21.3066 9.42871 21.2959 9.18262 21.2959 8.7959V6.82129H21.041V6.20605H21.2959V5.59375H22.4824ZM25.7432 8.125H24.2109V8.96582C24.2109 9.1416 24.2236 9.25488 24.249 9.30566C24.2744 9.35645 24.3232 9.38184 24.3955 9.38184C24.4854 9.38184 24.5449 9.34863 24.5742 9.28223C24.6055 9.21387 24.6211 9.08301 24.6211 8.88965V8.37695H25.7432V8.66406C25.7432 8.9043 25.7275 9.08887 25.6963 9.21777C25.667 9.34668 25.5967 9.48438 25.4854 9.63086C25.374 9.77734 25.2324 9.8877 25.0605 9.96191C24.8906 10.0342 24.6768 10.0703 24.4189 10.0703C24.1689 10.0703 23.9482 10.0342 23.7568 9.96191C23.5654 9.88965 23.416 9.79102 23.3086 9.66602C23.2031 9.53906 23.1299 9.40039 23.0889 9.25C23.0479 9.09766 23.0273 8.87695 23.0273 8.58789V7.4541C23.0273 7.11426 23.0732 6.84668 23.165 6.65137C23.2568 6.4541 23.4072 6.30371 23.6162 6.2002C23.8252 6.09473 24.0654 6.04199 24.3369 6.04199C24.6689 6.04199 24.9424 6.10547 25.1572 6.23242C25.374 6.35742 25.5254 6.52441 25.6113 6.7334C25.6992 6.94043 25.7432 7.23242 25.7432 7.60938V8.125ZM24.5566 7.49219V7.20801C24.5566 7.00684 24.5459 6.87695 24.5244 6.81836C24.5029 6.75977 24.459 6.73047 24.3926 6.73047C24.3105 6.73047 24.2598 6.75586 24.2402 6.80664C24.2207 6.85547 24.2109 6.98926 24.2109 7.20801V7.49219H24.5566ZM27.3516 5.25684V10H26.1328V5.25684H27.3516ZM30.457 7.47754V8.42969C30.457 8.7793 30.4395 9.03613 30.4043 9.2002C30.3691 9.3623 30.2939 9.51465 30.1787 9.65723C30.0635 9.79785 29.915 9.90234 29.7334 9.9707C29.5537 10.0371 29.3467 10.0703 29.1123 10.0703C28.8506 10.0703 28.6289 10.042 28.4473 9.98535C28.2656 9.92676 28.124 9.83984 28.0225 9.72461C27.9229 9.60742 27.8516 9.4668 27.8086 9.30273C27.7656 9.13672 27.7441 8.88867 27.7441 8.55859V7.5625C27.7441 7.20117 27.7832 6.91895 27.8613 6.71582C27.9395 6.5127 28.0801 6.34961 28.2832 6.22656C28.4863 6.10352 28.7461 6.04199 29.0625 6.04199C29.3281 6.04199 29.5557 6.08203 29.7451 6.16211C29.9365 6.24023 30.084 6.34277 30.1875 6.46973C30.291 6.59668 30.3613 6.72754 30.3984 6.8623C30.4375 6.99707 30.457 7.20215 30.457 7.47754ZM29.2734 7.18457C29.2734 6.98535 29.2627 6.86035 29.2412 6.80957C29.2197 6.75684 29.1738 6.73047 29.1035 6.73047C29.0332 6.73047 28.9863 6.75684 28.9629 6.80957C28.9395 6.86035 28.9277 6.98535 28.9277 7.18457V8.93945C28.9277 9.12305 28.9395 9.24316 28.9629 9.2998C28.9863 9.35449 29.0322 9.38184 29.1006 9.38184C29.1709 9.38184 29.2168 9.35645 29.2383 9.30566C29.2617 9.25488 29.2734 9.14551 29.2734 8.97754V7.18457ZM31.9072 7.61816H30.7969V7.35742C30.7969 7.05664 30.8311 6.8252 30.8994 6.66309C30.9697 6.49902 31.1094 6.35449 31.3184 6.22949C31.5273 6.10449 31.7988 6.04199 32.1328 6.04199C32.5332 6.04199 32.835 6.11328 33.0381 6.25586C33.2412 6.39648 33.3633 6.57031 33.4043 6.77734C33.4453 6.98242 33.4658 7.40625 33.4658 8.04883V10H32.3145V9.6543C32.2422 9.79297 32.1484 9.89746 32.0332 9.96777C31.9199 10.0361 31.7842 10.0703 31.626 10.0703C31.4189 10.0703 31.2285 10.0127 31.0547 9.89746C30.8828 9.78027 30.7969 9.52539 30.7969 9.13281V8.81348C30.7969 8.52246 30.8428 8.32422 30.9346 8.21875C31.0264 8.11328 31.2539 7.99023 31.6172 7.84961C32.0059 7.69727 32.2139 7.59473 32.2412 7.54199C32.2686 7.48926 32.2822 7.38184 32.2822 7.21973C32.2822 7.0166 32.2666 6.88477 32.2354 6.82422C32.2061 6.76172 32.1562 6.73047 32.0859 6.73047C32.0059 6.73047 31.9561 6.75684 31.9365 6.80957C31.917 6.86035 31.9072 6.99414 31.9072 7.21094V7.61816ZM32.2822 8.15137C32.0928 8.29004 31.9824 8.40625 31.9512 8.5C31.9219 8.59375 31.9072 8.72852 31.9072 8.9043C31.9072 9.10547 31.9199 9.23535 31.9453 9.29395C31.9727 9.35254 32.0254 9.38184 32.1035 9.38184C32.1777 9.38184 32.2256 9.35938 32.2471 9.31445C32.2705 9.26758 32.2822 9.14648 32.2822 8.95117V8.15137ZM36.5654 5.25684V10H35.3818V9.71875C35.2686 9.83594 35.1494 9.92383 35.0244 9.98242C34.8994 10.041 34.7686 10.0703 34.6318 10.0703C34.4482 10.0703 34.2891 10.0225 34.1543 9.92676C34.0195 9.8291 33.9326 9.7168 33.8936 9.58984C33.8564 9.46289 33.8379 9.25586 33.8379 8.96875V7.14941C33.8379 6.85059 33.8564 6.63867 33.8936 6.51367C33.9326 6.38867 34.0205 6.2793 34.1572 6.18555C34.2939 6.08984 34.457 6.04199 34.6465 6.04199C34.793 6.04199 34.9268 6.06836 35.0479 6.12109C35.1709 6.17383 35.2822 6.25293 35.3818 6.3584V5.25684H36.5654ZM35.3818 7.09082C35.3818 6.94824 35.3691 6.85254 35.3438 6.80371C35.3203 6.75488 35.2725 6.73047 35.2002 6.73047C35.1299 6.73047 35.082 6.75293 35.0566 6.79785C35.0332 6.84082 35.0215 6.93848 35.0215 7.09082V8.99512C35.0215 9.15332 35.0332 9.25781 35.0566 9.30859C35.0801 9.35742 35.125 9.38184 35.1914 9.38184C35.2676 9.38184 35.3184 9.35449 35.3438 9.2998C35.3691 9.24316 35.3818 9.10645 35.3818 8.88965V7.09082ZM39.6709 8.125H38.1387V8.96582C38.1387 9.1416 38.1514 9.25488 38.1768 9.30566C38.2021 9.35645 38.251 9.38184 38.3232 9.38184C38.4131 9.38184 38.4727 9.34863 38.502 9.28223C38.5332 9.21387 38.5488 9.08301 38.5488 8.88965V8.37695H39.6709V8.66406C39.6709 8.9043 39.6553 9.08887 39.624 9.21777C39.5947 9.34668 39.5244 9.48438 39.4131 9.63086C39.3018 9.77734 39.1602 9.8877 38.9883 9.96191C38.8184 10.0342 38.6045 10.0703 38.3467 10.0703C38.0967 10.0703 37.876 10.0342 37.6846 9.96191C37.4932 9.88965 37.3438 9.79102 37.2363 9.66602C37.1309 9.53906 37.0576 9.40039 37.0166 9.25C36.9756 9.09766 36.9551 8.87695 36.9551 8.58789V7.4541C36.9551 7.11426 37.001 6.84668 37.0928 6.65137C37.1846 6.4541 37.335 6.30371 37.5439 6.2002C37.7529 6.09473 37.9932 6.04199 38.2646 6.04199C38.5967 6.04199 38.8701 6.10547 39.085 6.23242C39.3018 6.35742 39.4531 6.52441 39.5391 6.7334C39.627 6.94043 39.6709 7.23242 39.6709 7.60938V8.125ZM38.4844 7.49219V7.20801C38.4844 7.00684 38.4736 6.87695 38.4521 6.81836C38.4307 6.75977 38.3867 6.73047 38.3203 6.73047C38.2383 6.73047 38.1875 6.75586 38.168 6.80664C38.1484 6.85547 38.1387 6.98926 38.1387 7.20801V7.49219H38.4844ZM41.2441 6.1123L41.1973 6.62207C41.3691 6.25684 41.6182 6.06348 41.9443 6.04199V7.41016C41.7275 7.41016 41.5684 7.43945 41.4668 7.49805C41.3652 7.55664 41.3027 7.63867 41.2793 7.74414C41.2559 7.84766 41.2441 8.08789 41.2441 8.46484V10H40.0605V6.1123H41.2441Z" fill="url(#paint2_linear_305_86)"/>
<defs>
<linearGradient id="paint0_linear_305_86" x1="9.5" y1="10" x2="11.5" y2="15.5" gradientUnits="userSpaceOnUse">
<stop stop-color="#DFF2F9"/>
<stop offset="1" stop-color="#94A2A6"/>
</linearGradient>
<linearGradient id="paint1_linear_305_86" x1="8.5" y1="9" x2="11" y2="15" gradientUnits="userSpaceOnUse">
<stop stop-opacity="0.1"/>
<stop offset="1" stop-opacity="0.3"/>
</linearGradient>
<linearGradient id="paint2_linear_305_86" x1="17" y1="7" x2="42" y2="7" gradientUnits="userSpaceOnUse">
<stop stop-color="white"/>
<stop offset="0.359275" stop-color="white"/>
<stop offset="0.359375" stop-color="#4785D1"/>
<stop offset="1" stop-color="#4785D1"/>
</linearGradient>
</defs>
</svg>
