<svg width="16" height="16" viewBox="0 0 16 16" fill="none" xmlns="http://www.w3.org/2000/svg">
<path d="M4 2H3V3H2V5H1V6H2V7H3V8H2V9H3V10H5V11H4V12H6V13H7V14H9V15H11V14H14V13H12V12H13V11H11V9H10V8H9V9H8V7H6V5H5V4H4V2Z" fill="url(#paint0_linear_305_77)"/>
<path d="M3 4H4V6H5V8H6V9H7V10H8V11H9V12H11V13H14V14H11V13H9V12H8V11H7V10H6V9H5V8H4V6H3V4Z" fill="url(#paint1_linear_305_77)"/>
<path d="M5.4834 1.02368V3H4.97559V1.02368H5.4834ZM6.16943 1.02368V1.28125H5.66162V1.02368H6.16943ZM6.16943 1.38013V3H5.66162V1.38013H6.16943ZM6.86768 1.16406V1.41919H7.00073V1.67554H6.86768V2.54224C6.86768 2.64884 6.87297 2.70825 6.88354 2.72046C6.89494 2.73267 6.94092 2.73877 7.02148 2.73877V3H6.82251C6.71021 3 6.63005 2.99552 6.58203 2.98657C6.53402 2.97681 6.4917 2.95524 6.45508 2.92188C6.41846 2.8877 6.39567 2.84904 6.38672 2.80591C6.37777 2.76196 6.37329 2.65942 6.37329 2.49829V1.67554H6.26709V1.41919H6.37329V1.16406H6.86768ZM8.22632 2.21875H7.58789V2.56909C7.58789 2.64233 7.59318 2.68953 7.60376 2.71069C7.61434 2.73185 7.63468 2.74243 7.66479 2.74243C7.70223 2.74243 7.72705 2.7286 7.73926 2.70093C7.75228 2.67244 7.75879 2.61792 7.75879 2.53735V2.32373H8.22632V2.44336C8.22632 2.54346 8.21981 2.62036 8.20679 2.67407C8.19458 2.72778 8.16528 2.78516 8.1189 2.84619C8.07251 2.90723 8.01351 2.95321 7.94189 2.98413C7.87109 3.01424 7.78198 3.0293 7.67456 3.0293C7.57039 3.0293 7.47843 3.01424 7.39868 2.98413C7.31893 2.95402 7.25667 2.91292 7.21191 2.86084C7.16797 2.80794 7.13745 2.75016 7.12036 2.6875C7.10327 2.62402 7.09473 2.53206 7.09473 2.41162V1.93921C7.09473 1.79761 7.11385 1.68612 7.1521 1.60474C7.19035 1.52254 7.25301 1.45988 7.34009 1.41675C7.42716 1.3728 7.52726 1.35083 7.64038 1.35083C7.77873 1.35083 7.89266 1.37728 7.98218 1.43018C8.07251 1.48226 8.13558 1.55184 8.17139 1.63892C8.20801 1.72518 8.22632 1.84684 8.22632 2.00391V2.21875ZM7.73193 1.95508V1.83667C7.73193 1.75285 7.72746 1.69873 7.71851 1.67432C7.70955 1.6499 7.69124 1.6377 7.66357 1.6377C7.62939 1.6377 7.60824 1.64827 7.6001 1.66943C7.59196 1.68978 7.58789 1.74552 7.58789 1.83667V1.95508H7.73193ZM8.89648 1.02368V3H8.38867V1.02368H8.89648ZM10.1904 1.94897V2.3457C10.1904 2.49137 10.1831 2.59839 10.1685 2.66675C10.1538 2.73429 10.1225 2.79777 10.0745 2.85718C10.0264 2.91577 9.9646 2.95931 9.88892 2.98779C9.81405 3.01546 9.72778 3.0293 9.63013 3.0293C9.52108 3.0293 9.42871 3.0175 9.35303 2.9939C9.27734 2.96948 9.21834 2.93327 9.17603 2.88525C9.13452 2.83643 9.10482 2.77783 9.08691 2.70947C9.06901 2.6403 9.06006 2.53695 9.06006 2.39941V1.98438C9.06006 1.83382 9.07633 1.71623 9.10889 1.63159C9.14144 1.54696 9.20003 1.479 9.28467 1.42773C9.3693 1.37646 9.47754 1.35083 9.60938 1.35083C9.72005 1.35083 9.81486 1.36751 9.8938 1.40088C9.97355 1.43343 10.035 1.47616 10.0781 1.52905C10.1213 1.58195 10.1506 1.63647 10.166 1.69263C10.1823 1.74878 10.1904 1.83423 10.1904 1.94897ZM9.69727 1.8269C9.69727 1.7439 9.69279 1.69181 9.68384 1.67065C9.67489 1.64868 9.65576 1.6377 9.62646 1.6377C9.59717 1.6377 9.57764 1.64868 9.56787 1.67065C9.55811 1.69181 9.55322 1.7439 9.55322 1.8269V2.55811C9.55322 2.6346 9.55811 2.68465 9.56787 2.70825C9.57764 2.73104 9.59676 2.74243 9.62524 2.74243C9.65454 2.74243 9.67367 2.73185 9.68262 2.71069C9.69238 2.68953 9.69727 2.64396 9.69727 2.57397V1.8269ZM10.7947 2.00757H10.332V1.89893C10.332 1.7736 10.3463 1.67716 10.3748 1.60962C10.4041 1.54126 10.4622 1.48104 10.5493 1.42896C10.6364 1.37687 10.7495 1.35083 10.8887 1.35083C11.0555 1.35083 11.1812 1.38053 11.2659 1.43994C11.3505 1.49854 11.4014 1.57096 11.4185 1.65723C11.4355 1.74268 11.4441 1.91927 11.4441 2.18701V3H10.9644V2.85596C10.9342 2.91374 10.8952 2.95728 10.8472 2.98657C10.8 3.01506 10.7434 3.0293 10.6775 3.0293C10.5912 3.0293 10.5119 3.00529 10.4395 2.95728C10.3678 2.90845 10.332 2.80225 10.332 2.63867V2.50562C10.332 2.38436 10.3512 2.30176 10.3894 2.25781C10.4277 2.21387 10.5225 2.1626 10.6738 2.104C10.8358 2.04053 10.9224 1.9978 10.9338 1.97583C10.9452 1.95386 10.9509 1.9091 10.9509 1.84155C10.9509 1.75692 10.9444 1.70199 10.9314 1.67676C10.9192 1.65072 10.8984 1.6377 10.8691 1.6377C10.8358 1.6377 10.815 1.64868 10.8069 1.67065C10.7987 1.69181 10.7947 1.74756 10.7947 1.83789V2.00757ZM10.9509 2.22974C10.872 2.28752 10.826 2.33594 10.813 2.375C10.8008 2.41406 10.7947 2.47021 10.7947 2.54346C10.7947 2.62728 10.8 2.6814 10.8105 2.70581C10.8219 2.73022 10.8439 2.74243 10.8765 2.74243C10.9074 2.74243 10.9273 2.73307 10.9363 2.71436C10.946 2.69482 10.9509 2.64437 10.9509 2.56299V2.22974ZM12.7356 1.02368V3H12.2424V2.88281C12.1952 2.93164 12.1456 2.96826 12.0935 2.99268C12.0414 3.01709 11.9869 3.0293 11.9299 3.0293C11.8534 3.0293 11.7871 3.00936 11.731 2.96948C11.6748 2.92879 11.6386 2.882 11.6223 2.8291C11.6069 2.7762 11.5991 2.68994 11.5991 2.57031V1.81226C11.5991 1.68774 11.6069 1.59945 11.6223 1.54736C11.6386 1.49528 11.6752 1.44971 11.7322 1.41064C11.7891 1.37077 11.8571 1.35083 11.936 1.35083C11.9971 1.35083 12.0528 1.36182 12.1033 1.38379C12.1545 1.40576 12.2009 1.43872 12.2424 1.48267V1.02368H12.7356ZM12.2424 1.78784C12.2424 1.72843 12.2371 1.68856 12.2266 1.66821C12.2168 1.64787 12.1969 1.6377 12.1667 1.6377C12.1375 1.6377 12.1175 1.64705 12.1069 1.66577C12.0972 1.68368 12.0923 1.72437 12.0923 1.78784V2.5813C12.0923 2.64722 12.0972 2.69076 12.1069 2.71191C12.1167 2.73226 12.1354 2.74243 12.1631 2.74243C12.1948 2.74243 12.216 2.73104 12.2266 2.70825C12.2371 2.68465 12.2424 2.62769 12.2424 2.53735V1.78784ZM14.0295 2.21875H13.3911V2.56909C13.3911 2.64233 13.3964 2.68953 13.407 2.71069C13.4176 2.73185 13.4379 2.74243 13.468 2.74243C13.5055 2.74243 13.5303 2.7286 13.5425 2.70093C13.5555 2.67244 13.562 2.61792 13.562 2.53735V2.32373H14.0295V2.44336C14.0295 2.54346 14.023 2.62036 14.01 2.67407C13.9978 2.72778 13.9685 2.78516 13.9221 2.84619C13.8757 2.90723 13.8167 2.95321 13.7451 2.98413C13.6743 3.01424 13.5852 3.0293 13.4778 3.0293C13.3736 3.0293 13.2817 3.01424 13.2019 2.98413C13.1222 2.95402 13.0599 2.91292 13.0151 2.86084C12.9712 2.80794 12.9407 2.75016 12.9236 2.6875C12.9065 2.62402 12.8979 2.53206 12.8979 2.41162V1.93921C12.8979 1.79761 12.9171 1.68612 12.9553 1.60474C12.9936 1.52254 13.0562 1.45988 13.1433 1.41675C13.2304 1.3728 13.3305 1.35083 13.4436 1.35083C13.5819 1.35083 13.6959 1.37728 13.7854 1.43018C13.8757 1.48226 13.9388 1.55184 13.9746 1.63892C14.0112 1.72518 14.0295 1.84684 14.0295 2.00391V2.21875ZM13.5352 1.95508V1.83667C13.5352 1.75285 13.5307 1.69873 13.5217 1.67432C13.5128 1.6499 13.4945 1.6377 13.4668 1.6377C13.4326 1.6377 13.4115 1.64827 13.4033 1.66943C13.3952 1.68978 13.3911 1.74552 13.3911 1.83667V1.95508H13.5352ZM14.6851 1.38013L14.6655 1.59253C14.7371 1.44035 14.8409 1.35978 14.9768 1.35083V1.9209C14.8865 1.9209 14.8201 1.93311 14.7778 1.95752C14.7355 1.98193 14.7095 2.01611 14.6997 2.06006C14.6899 2.10319 14.6851 2.20329 14.6851 2.36035V3H14.1919V1.38013H14.6851Z" fill="url(#paint2_linear_305_77)"/>
<defs>
<linearGradient id="paint0_linear_305_77" x1="9.5" y1="10" x2="11.5" y2="15.5" gradientUnits="userSpaceOnUse">
<stop stop-color="#DFF2F9"/>
<stop offset="1" stop-color="#94A2A6"/>
</linearGradient>
<linearGradient id="paint1_linear_305_77" x1="8.5" y1="9" x2="11" y2="15" gradientUnits="userSpaceOnUse">
<stop stop-opacity="0.1"/>
<stop offset="1" stop-opacity="0.3"/>
</linearGradient>
<linearGradient id="paint2_linear_305_77" x1="4" y1="2" x2="15" y2="2" gradientUnits="userSpaceOnUse">
<stop stop-color="white"/>
<stop offset="0.390525" stop-color="white"/>
<stop offset="0.390625" stop-color="#4785D1"/>
<stop offset="1" stop-color="#4785D1"/>
</linearGradient>
</defs>
</svg>
